<?xml version="1.0" encoding="UTF-8" standalone="no"?>
<!DOCTYPE svg PUBLIC "-//W3C//DTD SVG 1.1//EN" "http://www.w3.org/Graphics/SVG/1.1/DTD/svg11.dtd">
<svg width="100%" height="100%" viewBox="0 0 16 16" version="1.1" xmlns="http://www.w3.org/2000/svg" xmlns:xlink="http://www.w3.org/1999/xlink" xml:space="preserve" xmlns:serif="http://www.serif.com/" style="fill-rule:evenodd;clip-rule:evenodd;stroke-linecap:round;">
    <g transform="matrix(0.484848,0,0,0.484848,26.3901,2.26768)">
        <g id="Artboard2">
            <g>
                <g transform="matrix(0.0405631,-0.0234191,0.0234191,0.0405631,-64.2111,5.43772)">
                    <path d="M566.667,366.667L565.022,277.066C565.022,259.807 573.648,243.691 588.008,234.117L589.648,233.023C605.158,222.684 625.222,222.151 641.255,231.654C655.988,240.384 665.022,256.238 665.022,273.362L666.667,433.333C666.667,489.99 648.997,542.52 618.87,585.713C570.68,654.797 490.62,700 400,700C309.382,700 229.32,654.797 181.131,585.713C151.003,542.52 148.737,497.506 148.737,440.849L148.737,414.573C148.737,388.783 148.211,357.787 171.533,346.773C189.557,338.263 210.443,338.263 228.467,346.773C251.789,357.787 266.667,381.267 266.667,407.057L266.667,433.333" style="fill:none;fill-rule:nonzero;stroke:rgb(100,239,117);stroke-width:66.67px;"/>
                </g>
                <g transform="matrix(0.0405631,-0.0234191,0.0234191,0.0405631,-64.2111,5.43772)">
                    <path d="M266.667,400L256.229,154.472C256.229,137.754 264.584,122.142 278.494,112.869C295.289,101.672 317.169,101.672 333.966,112.869C347.872,122.142 356.229,137.754 356.229,154.472L366.667,366.667" style="fill:none;fill-rule:nonzero;stroke:rgb(100,239,117);stroke-width:66.67px;stroke-linejoin:round;"/>
                </g>
                <g transform="matrix(0.0405631,-0.0234191,0.0234191,0.0405631,-64.2111,5.43772)">
                    <path d="M466.667,366.667L457.753,157C457.753,140.283 464.586,122.142 478.492,112.869C495.289,101.672 517.169,101.672 533.966,112.869C547.872,122.142 556.229,137.754 556.229,154.472L566.667,366.667" style="fill:none;fill-rule:nonzero;stroke:rgb(100,239,117);stroke-width:66.67px;stroke-linejoin:round;"/>
                </g>
                <g transform="matrix(0.0405631,-0.0234191,0.0234191,0.0405631,-64.2111,5.43772)">
                    <path d="M366.667,366.667L356.229,121.138C356.229,104.421 364.586,88.809 378.492,79.536C395.289,68.339 417.169,68.339 433.966,79.536C447.872,88.809 456.229,104.421 456.229,121.138L466.667,366.667" style="fill:none;fill-rule:nonzero;stroke:rgb(100,239,117);stroke-width:66.67px;stroke-linejoin:round;"/>
                </g>
            </g>
        </g>
    </g>
</svg>
