<?xml version="1.0" encoding="UTF-8" standalone="no"?>
<!DOCTYPE svg PUBLIC "-//W3C//DTD SVG 1.1//EN" "http://www.w3.org/Graphics/SVG/1.1/DTD/svg11.dtd">
<svg width="100%" height="100%" viewBox="0 0 1080 1080" version="1.1" xmlns="http://www.w3.org/2000/svg" xmlns:xlink="http://www.w3.org/1999/xlink" xml:space="preserve" xmlns:serif="http://www.serif.com/" style="fill-rule:evenodd;clip-rule:evenodd;stroke-linejoin:round;stroke-miterlimit:2;">
    <g transform="matrix(1.08009,0,0,1.08009,-192.567,-88.1582)">
        <path d="M678.244,100C944.034,100 1159.82,315.788 1159.82,581.577C1159.82,847.367 944.034,1063.15 678.244,1063.15C412.454,1063.15 196.667,847.367 196.667,581.577C196.667,315.788 412.454,100 678.244,100ZM678.244,105.291C415.374,105.291 201.957,318.708 201.957,581.577C201.957,844.447 415.374,1057.86 678.244,1057.86C941.114,1057.86 1154.53,844.447 1154.53,581.577C1154.53,318.708 941.114,105.291 678.244,105.291Z" style="fill:white;"/>
    </g>
</svg>
